<svg version="1.2" xmlns="http://www.w3.org/2000/svg" viewBox="220.95 901.07 3425 2795.75">
	<title>vecteezy_online-survey-flat-design-can-use-for-website-and-mobile_6318431-ai</title>
	<defs>
		<linearGradient id="g1" x1="980.3" y1="1628.3" x2="-199.1" y2="1359.2" gradientUnits="userSpaceOnUse">
			<stop offset="0" stop-color="#cedbff"/>
			<stop offset="1" stop-color="#f1f4fb"/>
		</linearGradient>
		<linearGradient id="g2" x1="3458.2" y1="2566.3" x2="3523.3" y2="3627.1" gradientUnits="userSpaceOnUse">
			<stop offset="0" stop-color="#d1deff"/>
			<stop offset="1" stop-color="#f4f7fe"/>
		</linearGradient>
		<linearGradient id="g3" x1="3282.5" y1="554.8" x2="3485.6" y2="4278.8" gradientUnits="userSpaceOnUse">
			<stop offset="0" stop-color="#6278ff"/>
			<stop offset="1" stop-color="#212e9e"/>
		</linearGradient>
		<linearGradient id="g4" x1="886.1" y1="1024.7" x2="905.1" y2="-1320" gradientUnits="userSpaceOnUse">
			<stop offset="0" stop-color="#fe7a94"/>
			<stop offset="1" stop-color="#f83f80"/>
		</linearGradient>
		<linearGradient id="g5" x1="986.8" y1="2887.1" x2="545.8" y2="1562.7" gradientUnits="userSpaceOnUse">
			<stop offset="0" stop-color="#6278ff"/>
			<stop offset="1" stop-color="#212e9e"/>
		</linearGradient>
		<linearGradient id="g6" x1="1689.2" y1="3048.7" x2="1036.4" y2="1992.3" gradientUnits="userSpaceOnUse">
			<stop offset="0" stop-color="#fe7a94"/>
			<stop offset="1" stop-color="#f83f80"/>
		</linearGradient>
		<linearGradient id="g7" x1="2566.4" y1="1375.3" x2="3082.2" y2="2577.2" gradientUnits="userSpaceOnUse">
			<stop offset="0" stop-color="#6278ff"/>
			<stop offset="1" stop-color="#212e9e"/>
		</linearGradient>
		<linearGradient id="g8" x1="2047.1" y1="1951.5" x2="2207.8" y2="2693.9" gradientUnits="userSpaceOnUse">
			<stop offset="0" stop-color="#fe7a94"/>
			<stop offset="1" stop-color="#f83f80"/>
		</linearGradient>
		<linearGradient id="g9" x1="2152.5" y1="2561.7" x2="2143.1" y2="1453.6" gradientUnits="userSpaceOnUse">
			<stop offset="0" stop-color="#fe7a94"/>
			<stop offset="1" stop-color="#f83f80"/>
		</linearGradient>
		<linearGradient id="g10" x1="2442" y1="1613.2" x2="2554.1" y2="2934.8" gradientUnits="userSpaceOnUse">
			<stop offset="0" stop-color="#fe7a94"/>
			<stop offset="1" stop-color="#f83f80"/>
		</linearGradient>
		<linearGradient id="g11" x1="2650.8" y1="1977" x2="2692.8" y2="2970.5" gradientUnits="userSpaceOnUse">
			<stop offset="0" stop-color="#6278ff"/>
			<stop offset="1" stop-color="#212e9e"/>
		</linearGradient>
		<linearGradient id="g12" x1="2792.1" y1="1323.9" x2="2857.5" y2="2244" gradientUnits="userSpaceOnUse">
			<stop offset="0" stop-color="#6278ff"/>
			<stop offset="1" stop-color="#212e9e"/>
		</linearGradient>
		<linearGradient id="g13" x1="3014.7" y1="1806" x2="3155.1" y2="2784.3" gradientUnits="userSpaceOnUse">
			<stop offset="0" stop-color="#fe7a94"/>
			<stop offset="1" stop-color="#f83f80"/>
		</linearGradient>
		<linearGradient id="g14" x1="1978.8" y1="1441.8" x2="2942.9" y2="1473.9" gradientUnits="userSpaceOnUse">
			<stop offset="0" stop-color="#6278ff"/>
			<stop offset="1" stop-color="#212e9e"/>
		</linearGradient>
		<linearGradient id="g15" x1="1976.5" y1="1510" x2="2940.6" y2="1542.1" gradientUnits="userSpaceOnUse">
			<stop offset="0" stop-color="#6278ff"/>
			<stop offset="1" stop-color="#212e9e"/>
		</linearGradient>
		<linearGradient id="g16" x1="1884.7" y1="1443.6" x2="1990.4" y2="1443.6" gradientUnits="userSpaceOnUse">
			<stop offset="0" stop-color="#fe7a94"/>
			<stop offset="1" stop-color="#f83f80"/>
		</linearGradient>
		<linearGradient id="g17" x1="2007.2" y1="1463.2" x2="4052.2" y2="1439.8" gradientUnits="userSpaceOnUse">
			<stop offset="0" stop-color="#6278ff"/>
			<stop offset="1" stop-color="#212e9e"/>
		</linearGradient>
		<linearGradient id="g18" x1="2008" y1="1531.4" x2="4053" y2="1508" gradientUnits="userSpaceOnUse">
			<stop offset="0" stop-color="#6278ff"/>
			<stop offset="1" stop-color="#212e9e"/>
		</linearGradient>
		<linearGradient id="g19" x1="2466.1" y1="1443.6" x2="2571.8" y2="1443.6" gradientUnits="userSpaceOnUse">
			<stop offset="0" stop-color="#fe7a94"/>
			<stop offset="1" stop-color="#f83f80"/>
		</linearGradient>
		<linearGradient id="g20" x1="1971.3" y1="1665.7" x2="2935.4" y2="1697.9" gradientUnits="userSpaceOnUse">
			<stop offset="0" stop-color="#6278ff"/>
			<stop offset="1" stop-color="#212e9e"/>
		</linearGradient>
		<linearGradient id="g21" x1="1969.1" y1="1733.9" x2="2933.1" y2="1766.1" gradientUnits="userSpaceOnUse">
			<stop offset="0" stop-color="#6278ff"/>
			<stop offset="1" stop-color="#212e9e"/>
		</linearGradient>
		<linearGradient id="g22" x1="1884.7" y1="1667.8" x2="1990.4" y2="1667.8" gradientUnits="userSpaceOnUse">
			<stop offset="0" stop-color="#fe7a94"/>
			<stop offset="1" stop-color="#f83f80"/>
		</linearGradient>
		<linearGradient id="g23" x1="2009.8" y1="1687.3" x2="4054.7" y2="1664" gradientUnits="userSpaceOnUse">
			<stop offset="0" stop-color="#6278ff"/>
			<stop offset="1" stop-color="#212e9e"/>
		</linearGradient>
		<linearGradient id="g24" x1="2010.5" y1="1755.6" x2="4055.5" y2="1732.2" gradientUnits="userSpaceOnUse">
			<stop offset="0" stop-color="#6278ff"/>
			<stop offset="1" stop-color="#212e9e"/>
		</linearGradient>
		<linearGradient id="g25" x1="2466.1" y1="1667.8" x2="2571.8" y2="1667.8" gradientUnits="userSpaceOnUse">
			<stop offset="0" stop-color="#fe7a94"/>
			<stop offset="1" stop-color="#f83f80"/>
		</linearGradient>
		<linearGradient id="g26" x1="1963.9" y1="1889.7" x2="2927.9" y2="1921.8" gradientUnits="userSpaceOnUse">
			<stop offset="0" stop-color="#6278ff"/>
			<stop offset="1" stop-color="#212e9e"/>
		</linearGradient>
		<linearGradient id="g27" x1="1961.6" y1="1957.9" x2="2925.7" y2="1990" gradientUnits="userSpaceOnUse">
			<stop offset="0" stop-color="#6278ff"/>
			<stop offset="1" stop-color="#212e9e"/>
		</linearGradient>
		<linearGradient id="g28" x1="1884.7" y1="1892" x2="1990.4" y2="1892" gradientUnits="userSpaceOnUse">
			<stop offset="0" stop-color="#fe7a94"/>
			<stop offset="1" stop-color="#f83f80"/>
		</linearGradient>
		<linearGradient id="g29" x1="2012.3" y1="1911.5" x2="4057.3" y2="1888.1" gradientUnits="userSpaceOnUse">
			<stop offset="0" stop-color="#6278ff"/>
			<stop offset="1" stop-color="#212e9e"/>
		</linearGradient>
		<linearGradient id="g30" x1="2013.1" y1="1979.7" x2="4058.1" y2="1956.4" gradientUnits="userSpaceOnUse">
			<stop offset="0" stop-color="#6278ff"/>
			<stop offset="1" stop-color="#212e9e"/>
		</linearGradient>
		<linearGradient id="g31" x1="2466.1" y1="1892" x2="2571.8" y2="1892" gradientUnits="userSpaceOnUse">
			<stop offset="0" stop-color="#fe7a94"/>
			<stop offset="1" stop-color="#f83f80"/>
		</linearGradient>
		<linearGradient id="g32" x1="1956.4" y1="2113.6" x2="2920.5" y2="2145.8" gradientUnits="userSpaceOnUse">
			<stop offset="0" stop-color="#6278ff"/>
			<stop offset="1" stop-color="#212e9e"/>
		</linearGradient>
		<linearGradient id="g33" x1="1954.1" y1="2181.8" x2="2918.2" y2="2213.9" gradientUnits="userSpaceOnUse">
			<stop offset="0" stop-color="#6278ff"/>
			<stop offset="1" stop-color="#212e9e"/>
		</linearGradient>
		<linearGradient id="g34" x1="1884.7" y1="2116.2" x2="1990.4" y2="2116.2" gradientUnits="userSpaceOnUse">
			<stop offset="0" stop-color="#fe7a94"/>
			<stop offset="1" stop-color="#f83f80"/>
		</linearGradient>
		<linearGradient id="g35" x1="2014.9" y1="2135.6" x2="4059.9" y2="2112.3" gradientUnits="userSpaceOnUse">
			<stop offset="0" stop-color="#6278ff"/>
			<stop offset="1" stop-color="#212e9e"/>
		</linearGradient>
		<linearGradient id="g36" x1="2015.7" y1="2203.9" x2="4060.6" y2="2180.5" gradientUnits="userSpaceOnUse">
			<stop offset="0" stop-color="#6278ff"/>
			<stop offset="1" stop-color="#212e9e"/>
		</linearGradient>
		<linearGradient id="g37" x1="2466.1" y1="2116.2" x2="2571.8" y2="2116.2" gradientUnits="userSpaceOnUse">
			<stop offset="0" stop-color="#fe7a94"/>
			<stop offset="1" stop-color="#f83f80"/>
		</linearGradient>
		<linearGradient id="g38" x1="1948.9" y1="2337.6" x2="2913" y2="2369.7" gradientUnits="userSpaceOnUse">
			<stop offset="0" stop-color="#6278ff"/>
			<stop offset="1" stop-color="#212e9e"/>
		</linearGradient>
		<linearGradient id="g39" x1="1946.7" y1="2405.7" x2="2910.7" y2="2437.9" gradientUnits="userSpaceOnUse">
			<stop offset="0" stop-color="#6278ff"/>
			<stop offset="1" stop-color="#212e9e"/>
		</linearGradient>
		<linearGradient id="g40" x1="1884.7" y1="2340.4" x2="1990.4" y2="2340.4" gradientUnits="userSpaceOnUse">
			<stop offset="0" stop-color="#fe7a94"/>
			<stop offset="1" stop-color="#f83f80"/>
		</linearGradient>
		<linearGradient id="g41" x1="2017.4" y1="2359.8" x2="4062.4" y2="2336.4" gradientUnits="userSpaceOnUse">
			<stop offset="0" stop-color="#6278ff"/>
			<stop offset="1" stop-color="#212e9e"/>
		</linearGradient>
		<linearGradient id="g42" x1="2018.2" y1="2428" x2="4063.2" y2="2404.7" gradientUnits="userSpaceOnUse">
			<stop offset="0" stop-color="#6278ff"/>
			<stop offset="1" stop-color="#212e9e"/>
		</linearGradient>
		<linearGradient id="g43" x1="2466.1" y1="2340.4" x2="2571.8" y2="2340.4" gradientUnits="userSpaceOnUse">
			<stop offset="0" stop-color="#fe7a94"/>
			<stop offset="1" stop-color="#f83f80"/>
		</linearGradient>
		<linearGradient id="g44" x1="1941.5" y1="2561.5" x2="2905.5" y2="2593.6" gradientUnits="userSpaceOnUse">
			<stop offset="0" stop-color="#6278ff"/>
			<stop offset="1" stop-color="#212e9e"/>
		</linearGradient>
		<linearGradient id="g45" x1="1939.2" y1="2629.7" x2="2903.3" y2="2661.8" gradientUnits="userSpaceOnUse">
			<stop offset="0" stop-color="#6278ff"/>
			<stop offset="1" stop-color="#212e9e"/>
		</linearGradient>
		<linearGradient id="g46" x1="1884.7" y1="2564.6" x2="1990.4" y2="2564.6" gradientUnits="userSpaceOnUse">
			<stop offset="0" stop-color="#fe7a94"/>
			<stop offset="1" stop-color="#f83f80"/>
		</linearGradient>
		<linearGradient id="g47" x1="2020" y1="2584" x2="4065" y2="2560.6" gradientUnits="userSpaceOnUse">
			<stop offset="0" stop-color="#6278ff"/>
			<stop offset="1" stop-color="#212e9e"/>
		</linearGradient>
		<linearGradient id="g48" x1="2020.8" y1="2652.2" x2="4065.8" y2="2628.8" gradientUnits="userSpaceOnUse">
			<stop offset="0" stop-color="#6278ff"/>
			<stop offset="1" stop-color="#212e9e"/>
		</linearGradient>
		<linearGradient id="g49" x1="2466.1" y1="2564.6" x2="2571.8" y2="2564.6" gradientUnits="userSpaceOnUse">
			<stop offset="0" stop-color="#fe7a94"/>
			<stop offset="1" stop-color="#f83f80"/>
		</linearGradient>
		<linearGradient id="g50" x1="1072.1" y1="2409.2" x2="1150.4" y2="3267.1" gradientUnits="userSpaceOnUse">
			<stop offset="0" stop-color="#6278ff"/>
			<stop offset="1" stop-color="#212e9e"/>
		</linearGradient>
		<linearGradient id="g51" x1="418.2" y1="2776.3" x2="1389.6" y2="2741.2" gradientUnits="userSpaceOnUse">
			<stop offset="0" stop-color="#fe7a94"/>
			<stop offset="1" stop-color="#f83f80"/>
		</linearGradient>
		<linearGradient id="g52" x1="1198" y1="1061.3" x2="1294.1" y2="1061.3" gradientUnits="userSpaceOnUse">
			<stop offset="0" stop-color="#27a9ef"/>
			<stop offset="1" stop-color="#5240d3"/>
		</linearGradient>
		<linearGradient id="g53" x1="3465.3" y1="2404.4" x2="3426.8" y2="2927.5" gradientUnits="userSpaceOnUse">
			<stop offset="0" stop-color="#f83f80"/>
			<stop offset="1" stop-color="#fe7a94"/>
		</linearGradient>
		<linearGradient id="g54" x1="3391.4" y1="2817.9" x2="3363.3" y2="3247.6" gradientUnits="userSpaceOnUse">
			<stop offset="0" stop-color="#6278ff"/>
			<stop offset="1" stop-color="#212e9e"/>
		</linearGradient>
		<linearGradient id="g55" x1="3383.2" y1="2660" x2="3360.6" y2="3044.2" gradientUnits="userSpaceOnUse">
			<stop offset="0" stop-color="#f83f80"/>
			<stop offset=".3" stop-color="#fa5287"/>
			<stop offset="1" stop-color="#fe7a94"/>
		</linearGradient>
		<linearGradient id="g56" x1="3280.1" y1="2741.7" x2="3263.5" y2="3144.6" gradientUnits="userSpaceOnUse">
			<stop offset="0" stop-color="#6278ff"/>
			<stop offset="1" stop-color="#212e9e"/>
		</linearGradient>
		<linearGradient id="g57" x1="1577.8" y1="2801" x2="1499.7" y2="3943.6" gradientUnits="userSpaceOnUse">
			<stop offset="0" stop-color="#fe7a94"/>
			<stop offset="1" stop-color="#f83f80"/>
		</linearGradient>
		<linearGradient id="g58" x1="1509.9" y1="2580.2" x2="1473.2" y2="3259.3" gradientUnits="userSpaceOnUse">
			<stop offset="0" stop-color="#6278ff"/>
			<stop offset="1" stop-color="#212e9e"/>
		</linearGradient>
		<linearGradient id="g59" x1="1186.9" y1="660.1" x2="1310.4" y2="1663.7" gradientUnits="userSpaceOnUse">
			<stop offset="0" stop-color="#d1deff"/>
			<stop offset="1" stop-color="#f4f7fe"/>
		</linearGradient>
		<linearGradient id="g60" x1="936.9" y1="755.1" x2="1146.2" y2="1456.1" gradientUnits="userSpaceOnUse">
			<stop offset="0" stop-color="#27a9ef"/>
			<stop offset="1" stop-color="#5240d3"/>
		</linearGradient>
		<linearGradient id="g61" x1="1010.8" y1="622.3" x2="1154.2" y2="1576.4" gradientUnits="userSpaceOnUse">
			<stop offset="0" stop-color="#6278ff"/>
			<stop offset="1" stop-color="#212e9e"/>
		</linearGradient>
		<linearGradient id="g62" x1="1254.6" y1="1255.5" x2="1331.6" y2="1942.5" gradientUnits="userSpaceOnUse">
			<stop offset="0" stop-color="#fe7a94"/>
			<stop offset="1" stop-color="#f83f80"/>
		</linearGradient>
		<linearGradient id="g63" x1="1105.9" y1="1316" x2="864.6" y2="1838.8" gradientUnits="userSpaceOnUse">
			<stop offset="0" stop-color="#fe7a94"/>
			<stop offset="1" stop-color="#f83f80"/>
		</linearGradient>
	</defs>
	<style>
		.s0 { fill: #9db8ff } 
		.s1 { fill: #bbceff } 
		.s2 { fill: #b8cbff } 
		.s3 { fill: #9ab5ff } 
		.s4 { fill: url(#g1) } 
		.s5 { fill: url(#g2) } 
		.s6 { fill: #c0ceff } 
		.s7 { fill: url(#g3) } 
		.s8 { fill: #ffffff } 
		.s9 { fill: url(#g4) } 
		.s10 { fill: url(#g5) } 
		.s11 { fill: url(#g6) } 
		.s12 { fill: url(#g7) } 
		.s13 { fill: url(#g8) } 
		.s14 { fill: url(#g9) } 
		.s15 { fill: url(#g10) } 
		.s16 { fill: url(#g11) } 
		.s17 { fill: url(#g12) } 
		.s18 { fill: url(#g13) } 
		.s19 { fill: #abc9f4 } 
		.s20 { fill: #e6f0ff } 
		.s21 { fill: url(#g14) } 
		.s22 { fill: url(#g15) } 
		.s23 { fill: url(#g16) } 
		.s24 { fill: url(#g17) } 
		.s25 { fill: url(#g18) } 
		.s26 { fill: url(#g19) } 
		.s27 { fill: url(#g20) } 
		.s28 { fill: url(#g21) } 
		.s29 { fill: url(#g22) } 
		.s30 { fill: url(#g23) } 
		.s31 { fill: url(#g24) } 
		.s32 { fill: url(#g25) } 
		.s33 { fill: url(#g26) } 
		.s34 { fill: url(#g27) } 
		.s35 { fill: url(#g28) } 
		.s36 { fill: url(#g29) } 
		.s37 { fill: url(#g30) } 
		.s38 { fill: url(#g31) } 
		.s39 { fill: url(#g32) } 
		.s40 { fill: url(#g33) } 
		.s41 { fill: url(#g34) } 
		.s42 { fill: url(#g35) } 
		.s43 { fill: url(#g36) } 
		.s44 { fill: url(#g37) } 
		.s45 { fill: url(#g38) } 
		.s46 { fill: url(#g39) } 
		.s47 { fill: url(#g40) } 
		.s48 { fill: url(#g41) } 
		.s49 { fill: url(#g42) } 
		.s50 { fill: url(#g43) } 
		.s51 { fill: url(#g44) } 
		.s52 { fill: url(#g45) } 
		.s53 { fill: url(#g46) } 
		.s54 { fill: url(#g47) } 
		.s55 { fill: url(#g48) } 
		.s56 { fill: url(#g49) } 
		.s57 { fill: #edf2fe } 
		.s58 { fill: url(#g50) } 
		.s59 { fill: #9cbdff } 
		.s60 { fill: url(#g51) } 
		.s61 { fill: url(#g52) } 
		.s62 { fill: #020640 } 
		.s63 { fill: #e8babc } 
		.s64 { fill: url(#g53) } 
		.s65 { fill: url(#g54) } 
		.s66 { fill: url(#g55) } 
		.s67 { fill: url(#g56) } 
		.s68 { fill: url(#g57) } 
		.s69 { fill: #efc5c8 } 
		.s70 { fill: url(#g58) } 
		.s71 { fill: #b7cbf9 } 
		.s72 { fill: url(#g59) } 
		.s73 { fill: url(#g60) } 
		.s74 { fill: url(#g61) } 
		.s75 { fill: #eac3c5 } 
		.s76 { fill: url(#g62) } 
		.s77 { fill: url(#g63) } 
	</style>
	<g id="Layer 6">
		<path id="&lt;Path&gt;" class="s0" d="m3532.1 1775.6c0 0-51.9-142.9-3.4-133.9 48.5 8.9 22.4 117.6 11.4 138z"/>
		<path id="&lt;Path&gt;" class="s1" d="m3522.1 1812.8c0 0 64.2-51.7 100.4-39.8 36.2 11.8 28.1 48.6-8.3 55.8-36.3 7.3-102.7 2.8-102.7 2.8 0 0-0.1-17.4 10.6-18.8z"/>
		<path id="&lt;Path&gt;" class="s0" d="m3452.1 1927.2c0 0 52.9-36.1 87.7-41.5 34.8-5.5 42.7 11.9 35.9 31.4-6.8 19.5-19.1 21.3-45.8 23.5-26.6 2.2-88.2 1.7-88.2 1.7z"/>
		<path id="&lt;Path&gt;" class="s1" d="m3482.4 1863.3c0 0-105.2-106.1-56.5-113.5 48.7-7.4 64.6 100 64.6 100z"/>
		<path id="&lt;Path&gt;" class="s1" d="m3408.8 1971.4c0 0-53.6-63.7-59.4-92.4-5.8-28.8 24-42.4 46.9-15 22.8 27.3 19.8 98.1 19.8 98.1z"/>
		<path id="&lt;Path&gt;" class="s0" d="m3390.6 2006.3c0 0 82.9-18.1 104.1-0.9 21.2 17.2 17.1 50.2-22.9 45.7-39.9-4.4-98.8-27.7-98.8-27.7 0 0 8.4-15.3 17.6-17.1z"/>
		<path id="&lt;Path&gt;" class="s0" d="m3318.9 2062.8c0 0-44-54.8-57.6-74.3-13.7-19.5-20.7-73.9 17-54.4 37.7 19.6 43.6 116.1 43.6 116.1z"/>
		<path id="&lt;Path&gt;" class="s1" d="m3284.3 2083.3c0 0 98.1-18 114.3 20.2 16.2 38.2-59.5 27.3-87.8 17.6-28.3-9.7-56.1-21.7-56.1-21.7 0 0 16.8-22.3 29.6-16.1z"/>
		<path id="&lt;Path&gt;" class="s1" d="m3222.3 2111.6l-14.9 1.2c0 0-13.9-18.2-33.4-46.7-19.6-28.4-23-60 4.9-75.8 27.9-15.8 42.9 115.5 42.9 115.5z"/>
		<path id="&lt;Path&gt;" class="s1" d="m3195.4 2128.5c0 0 92.9 10.7 88.5 42-4.3 31.3-27.3 33.2-60.2 19.6-32.9-13.6-55.6-49.2-55.6-49.2z"/>
		<g id="&lt;Group&gt;">
			<path id="&lt;Path&gt;" class="s0" d="m3113.7 2163.9l-3.3-8.3c1.9-0.8 193.1-76.5 264.9-146.4 71.8-70 156-231.9 156.8-233.6l8 4.1c-0.9 1.7-85.7 164.9-158.6 235.9-73 71.1-259.9 145.2-267.8 148.3z"/>
		</g>
		<path id="&lt;Path&gt;" class="s0" d="m3471.3 1317.5c0 0-51.3-143.1-2.9-134 48.5 9.1 21.9 117.8 10.8 138.2z"/>
		<path id="&lt;Path&gt;" class="s1" d="m3461.2 1354.7c0 0 64.3-51.5 100.5-39.5 36.2 12 27.9 48.7-8.5 55.8-36.4 7.2-102.8 2.5-102.8 2.5 0 0 0-17.5 10.8-18.8z"/>
		<path id="&lt;Path&gt;" class="s0" d="m3390.7 1468.8c0 0 53.1-35.9 87.9-41.2 34.8-5.3 42.6 12 35.7 31.5-6.8 19.5-19.2 21.3-45.8 23.4-26.7 2.1-88.3 1.3-88.3 1.3z"/>
		<path id="&lt;Path&gt;" class="s1" d="m3421.3 1405c0 0-104.9-106.5-56.2-113.7 48.8-7.3 64.3 100.3 64.3 100.3z"/>
		<path id="&lt;Path&gt;" class="s1" d="m3347.2 1512.9c0 0-53.4-64-59.1-92.7-5.6-28.8 24.2-42.3 47-14.9 22.8 27.5 19.4 98.3 19.4 98.3z"/>
		<path id="&lt;Path&gt;" class="s0" d="m3328.9 1547.7c0 0 83-17.8 104.1-0.6 21.1 17.3 16.9 50.3-23 45.7-40-4.6-98.7-28.1-98.7-28.1 0 0 8.4-15.2 17.6-17z"/>
		<path id="&lt;Path&gt;" class="s0" d="m3257 1603.9c0 0-43.8-55-57.4-74.5-13.5-19.6-20.4-74 17.2-54.4 37.7 19.7 43.2 116.2 43.2 116.2z"/>
		<path id="&lt;Path&gt;" class="s1" d="m3222.3 1624.3c0 0 98.1-17.6 114.2 20.6 16.1 38.3-59.5 27-87.8 17.2-28.3-9.8-56.1-21.9-56.1-21.9 0 0 16.9-22.2 29.7-15.9z"/>
		<path id="&lt;Path&gt;" class="s1" d="m3160.2 1652.3l-14.9 1.1c0 0-13.8-18.2-33.3-46.7-19.4-28.6-22.7-60.1 5.3-75.8 27.9-15.7 42.4 115.6 42.4 115.6z"/>
		<path id="&lt;Path&gt;" class="s1" d="m3133.2 1669.1c0 0 92.9 11.1 88.4 42.4-4.4 31.3-27.4 33.1-60.3 19.3-32.9-13.7-55.4-49.4-55.4-49.4z"/>
		<g id="&lt;Group&gt;">
			<path id="&lt;Path&gt;" class="s0" d="m3051.4 1704.2l-3.3-8.3c2-0.8 193.5-75.8 265.4-145.4 72.1-69.8 157-231.4 157.8-233l7.9 4.2c-0.8 1.6-86.3 164.5-159.4 235.2-73.3 70.9-260.5 144.2-268.4 147.3z"/>
		</g>
		<path id="&lt;Path&gt;" class="s2" d="m379.2 1176.3c0 0 374.8-32 430.3 407.2 0 0-320.1 89-430.3-407.2z"/>
		<path id="&lt;Path&gt;" class="s0" d="m809.5 1583.5c0 0-358.8-364.5-414.3-393.9 0 0 325.8 213.4 414.3 393.9z"/>
		<path id="&lt;Path&gt;" class="s0" d="m505.7 1284.4c0 0-80-8.5-69.1-8.4 10.8 0 56.3-3.6 56.3-3.6z"/>
		<path id="&lt;Path&gt;" class="s0" d="m506.1 1269c-0.5-0.3-7.2-47-7-45.3 0.2 1.7 47.1 76.6 47.1 76.6z"/>
		<path id="&lt;Path&gt;" class="s0" d="m578 1353.5l-94.4-26.9c0 0 68 5.4 70.4 3.8z"/>
		<path id="&lt;Path&gt;" class="s0" d="m581 1328.7l-10.7-70.5 25.8 83.1z"/>
		<path id="&lt;Path&gt;" class="s0" d="m656.9 1430.8c0 0-117.8-35.6-119.6-36.5-1.8-0.8 101.4 18.6 101.4 18.6z"/>
		<path id="&lt;Path&gt;" class="s0" d="m649.1 1388.4l-14.9-77.3 35.6 96.8z"/>
		<path id="&lt;Path&gt;" class="s0" d="m726.1 1499.5l-125.8-24.6c0 0 92.8-3.1 96.7-4.3z"/>
		<path id="&lt;Path&gt;" class="s0" d="m708.3 1446.7l-6.8-48.7c0 0 34.6 79.4 32.6 77.1-2-2.2-25.8-28.4-25.8-28.4z"/>
		<path id="&lt;Path&gt;" class="s0" d="m778.4 1552.1c0 0-79.5-14.8-83.2-15.3-3.7-0.4 63.3 1.5 69.4 1.4z"/>
		<path id="&lt;Path&gt;" class="s0" d="m774.4 1525.7c0 0-10.1-65.3-8.6-62.5 1.6 2.7 18.9 77.4 18.9 77.4z"/>
		<path id="&lt;Path&gt;" class="s3" d="m609.2 950c0 0 362.6 99.7 262.7 531 0 0-331.2-27.4-262.7-531z"/>
		<g id="&lt;Group&gt;">
			<path id="&lt;Path&gt;" class="s2" d="m629.2 981.3c-3.8-5.9-7-10.5-9.6-13.4 0 0 3.4 4.8 9.6 13.4z"/>
			<path id="&lt;Path&gt;" class="s2" d="m705.3 1035.9q-0.1 0-0.1 0 0.1-0.1 0.1 0z"/>
			<path id="&lt;Compound Path&gt;" fill-rule="evenodd" class="s2" d="m805.4 1336.1c-7.6-16.5-15.6-33.6-23.8-51.2 0 0-98.2-74.3-99.6-75.7-1.4-1.4 88.7 52.5 88.7 52.5-11.9-25.4-24.2-51.3-36.4-76.7l-79.2-58c0 0 61.9 28.7 64.7 28-10.1-20.8-19.9-40.9-29.4-59.8 0 0-72.1-35.8-61.9-31.9 10.2 3.8 54 16.2 54 16.2-21.7-43.1-40.6-78.5-53.3-98.2 13 18.2 37.8 53.8 66.9 99.6-0.3-0.5 8.8-43.2 9.1-45-0.3 2.1 17.7 88.2 17.7 88.2v-0.1c7.5 12.5 15.2 25.5 22.9 38.8l-0.1-0.1 14.4-69.8-4.6 86.9c11.4 20.3 22.7 41.2 33.5 62.5l12.8-77.6-0.2 103.1c8 16.5 15.6 33.1 22.7 49.7q0 0 0 0l10.5-48c0 0 4.9 86.5 3.9 83.7q-0.1-0.1-0.1-0.3c17 44.9 29.2 88.7 33.3 128.1 0 0-20.2-44.7-49.2-107.7l-109.5-66.6c0 0 88.1 29.2 92.2 29.4zm17.2 37.1c-5.4-11.8-11.2-24.2-17.2-37.1zm-132.3-278.3q-3.8-7.7-7.6-15.1zm44 90c-4.8-10.1-9.7-20-14.4-29.9zm47.2 99.6q-5.3-11.2-10.7-22.6z"/>
		</g>
		<path id="&lt;Path&gt;" class="s2" d="m917.5 1508.4c0 0-65.9-46.9-69-48.9-3.2-1.9 56.8 28.1 62.3 30.5z"/>
		<path id="&lt;Path&gt;" class="s4" d="m235.3 1599.4c0 0 420.2-270.7 758.6 210.7 0 0-320.6 303.6-758.6-210.7z"/>
		<path id="&lt;Path&gt;" class="s2" d="m993.9 1810.1c0 0-648.2-205-731.6-205 0 0 515.4 48 731.6 205z"/>
		<path id="&lt;Path&gt;" class="s2" d="m451.1 1647.7c0 0-99.3 39.7-86.5 33.1 12.8-6.7 63.9-39.2 63.9-39.2z"/>
		<path id="&lt;Path&gt;" class="s2" d="m442 1629.4c-0.9-0.1-37.7-50.8-36.4-48.9 1.3 1.9 102.9 60.7 102.9 60.7z"/>
		<path id="&lt;Path&gt;" class="s2" d="m578.9 1683.9l-127.6 27c0 0 83.3-35.9 85-39.3z"/>
		<path id="&lt;Path&gt;" class="s2" d="m567 1652.8l-56.4-76.1 82 81.7z"/>
		<path id="&lt;Path&gt;" class="s2" d="m719.7 1725.6c0 0-160.6 31.4-163.2 31.5-2.6 0.1 130.6-41.2 130.6-41.2z"/>
		<path id="&lt;Path&gt;" class="s2" d="m684.1 1680.6l-65.5-81.5 101.9 91.6z"/>
		<path id="&lt;Path&gt;" class="s2" d="m843.7 1763.3l-163 49.3c0 0 107-61.3 110.8-65.2z"/>
		<path id="&lt;Path&gt;" class="s2" d="m789.8 1712.3l-38.1-52.9c0 0 89.9 71.7 86.2 70.3-3.7-1.5-48.1-17.4-48.1-17.4z"/>
		<path id="&lt;Path&gt;" class="s2" d="m937.8 1792.5c0 0-102.6 32.1-107.2 33.8-4.6 1.8 75.3-37.6 82.4-41.5z"/>
		<path id="&lt;Path&gt;" class="s2" d="m916.7 1764.1c0 0-52.5-70.4-49-68.2 3.5 2.2 70.3 79.3 70.3 79.3z"/>
		<path id="&lt;Path&gt;" class="s0" d="m326.8 2152.3c-10.9-20.4-37.1-129.1 11.4-138 48.5-9-3.4 133.9-3.4 133.9z"/>
		<path id="&lt;Path&gt;" class="s1" d="m355.4 2204.2c0 0-66.4 4.5-102.7-2.8-36.4-7.2-44.5-44-8.3-55.8 36.2-11.9 100.4 39.8 100.4 39.8 10.7 1.4 10.6 18.8 10.6 18.8z"/>
		<path id="&lt;Path&gt;" class="s0" d="m425.2 2314.9c0 0-61.6 0.5-88.2-1.7-26.6-2.2-39-4-45.8-23.5-6.8-19.5 1.1-36.9 35.9-31.4 34.8 5.4 87.7 41.5 87.7 41.5z"/>
		<path id="&lt;Path&gt;" class="s1" d="m376.4 2222.4c0 0 15.9-107.4 64.6-100 48.7 7.4-56.5 113.5-56.5 113.5z"/>
		<path id="&lt;Path&gt;" class="s1" d="m450.8 2334.7c0 0-3-70.8 19.9-98.2 22.8-27.3 52.6-13.7 46.8 15.1-5.8 28.7-59.4 92.4-59.4 92.4z"/>
		<path id="&lt;Path&gt;" class="s0" d="m493.9 2396c0 0-58.9 23.2-98.8 27.7-40 4.5-44-28.5-22.9-45.7 21.2-17.2 104.1 0.9 104.1 0.9 9.2 1.8 17.6 17.1 17.6 17.1z"/>
		<path id="&lt;Path&gt;" class="s0" d="m545 2422.7c0 0 5.9-96.4 43.6-116 37.7-19.5 30.7 34.9 17.1 54.4-13.7 19.5-57.7 74.3-57.7 74.3z"/>
		<path id="&lt;Path&gt;" class="s1" d="m612.2 2471.9c0 0-27.8 12-56.1 21.8-28.3 9.7-104 20.6-87.8-17.6 16.2-38.2 114.3-20.2 114.3-20.2 12.8-6.2 29.6 16 29.6 16z"/>
		<path id="&lt;Path&gt;" class="s1" d="m698.8 2513.5c0 0-22.7 35.6-55.6 49.2-32.9 13.6-55.9 11.7-60.2-19.6-4.3-31.3 88.5-42 88.5-42z"/>
		<g id="&lt;Group&gt;">
			<path id="&lt;Path&gt;" class="s0" d="m485.4 2388.2c-72.9-71-157.7-234.2-158.6-235.9l8-4.1c0.8 1.7 85 163.6 156.9 233.6 71.7 69.9 262.9 145.6 264.8 146.4l-3.3 8.3c-7.9-3.1-194.8-77.2-267.8-148.3z"/>
		</g>
	</g>
	<g id="Layer 5">
		<path id="&lt;Path&gt;" class="s5" d="m3520.3 3612.2h-3142l171-373.9c13.9-30.4 44.3-49.9 77.7-49.9h2644.6c33.5 0 63.8 19.5 77.8 49.9z"/>
		<path id="&lt;Path&gt;" class="s6" d="m3520.3 3696.8h-3142v-84.6h3142z"/>
		<path id="&lt;Path&gt;" class="s6" d="m2349.8 3583.9h-800.9c-14.9 0-23.9-16.3-16.2-28.9l43.7-71.3c3.4-5.6 9.6-9.1 16.2-9.1h713.5c6.6 0 12.7 3.5 16.1 9.1l43.7 71.3c7.8 12.6-1.3 28.9-16.1 28.9z"/>
		<g id="&lt;Group&gt;">
			<path id="&lt;Path&gt;" class="s6" d="m789.4 3354.2h151.7l-32 94.7h-156.3z"/>
			<path id="&lt;Path&gt;" class="s6" d="m973.8 3354.2h151.6l-26.4 94.7h-156.2z"/>
			<path id="&lt;Path&gt;" class="s6" d="m1163.6 3354.2h151.7l-20.6 94.7h-156.3z"/>
			<path id="&lt;Path&gt;" class="s6" d="m1348 3354.2h151.6l-14.9 94.7h-156.3z"/>
			<path id="&lt;Path&gt;" class="s6" d="m1535.7 3354.2h151.6l-9.1 94.7h-156.3z"/>
			<path id="&lt;Path&gt;" class="s6" d="m1720 3354.2h151.7l-3.6 94.7h-156.2z"/>
			<path id="&lt;Path&gt;" class="s6" d="m1909.9 3354.2h151.6l2.3 94.7h-156.3z"/>
			<path id="&lt;Path&gt;" class="s6" d="m2094.2 3354.2h151.7l7.9 94.7h-156.3z"/>
			<path id="&lt;Path&gt;" class="s6" d="m2286.4 3354.2h151.7l13.8 94.7h-156.3z"/>
			<path id="&lt;Path&gt;" class="s6" d="m2474.1 3354.2h151.7l19.5 94.7h-156.3z"/>
			<path id="&lt;Path&gt;" class="s6" d="m2658.5 3354.2h151.6l25.2 94.7h-156.3z"/>
			<path id="&lt;Path&gt;" class="s6" d="m2848.3 3354.2h151.7l31 94.7h-156.3z"/>
			<path id="&lt;Path&gt;" class="s6" d="m3184.3 3354.2l36.7 94.7h-156.3l-32-94.7z"/>
		</g>
		<g id="&lt;Group&gt;">
			<path id="&lt;Path&gt;" class="s6" d="m836.6 3239.9h145.6l-30.7 90.9h-150z"/>
			<path id="&lt;Path&gt;" class="s6" d="m1013.5 3239.9h145.6l-25.3 90.9h-150z"/>
			<path id="&lt;Path&gt;" class="s6" d="m1195.8 3239.9h145.5l-19.7 90.9h-150z"/>
			<path id="&lt;Path&gt;" class="s6" d="m1372.7 3239.9h145.5l-14.3 90.9h-150z"/>
			<path id="&lt;Path&gt;" class="s6" d="m1552.8 3239.9h145.6l-8.8 90.9h-150z"/>
			<path id="&lt;Path&gt;" class="s6" d="m1729.7 3239.9h145.6l-3.4 90.9h-150z"/>
			<path id="&lt;Path&gt;" class="s6" d="m1911.9 3239.9h145.6l2.2 90.9h-150z"/>
			<path id="&lt;Path&gt;" class="s6" d="m2088.9 3239.9h145.5l7.6 90.9h-150z"/>
			<path id="&lt;Path&gt;" class="s6" d="m2273.3 3239.9h145.5l13.3 90.9h-150z"/>
			<path id="&lt;Path&gt;" class="s6" d="m2453.5 3239.9h145.5l18.7 90.9h-149.9z"/>
			<path id="&lt;Path&gt;" class="s6" d="m2630.4 3239.9h145.5l24.2 90.9h-150z"/>
			<path id="&lt;Path&gt;" class="s6" d="m2812.6 3239.9h145.5l29.8 90.9h-150z"/>
			<path id="&lt;Path&gt;" class="s6" d="m3135 3239.9l35.2 90.9h-150l-30.7-90.9z"/>
		</g>
		<path id="&lt;Path&gt;" class="s7" d="m3327.8 1476.9v1611.9c0 55-44.6 99.6-99.6 99.6h-2556.5c-55 0-99.6-44.6-99.6-99.6v-1611.9c0-55 44.6-99.6 99.6-99.6h2556.5c55 0 99.6 44.6 99.6 99.6z"/>
		<path id="&lt;Path&gt;" class="s8" d="m3249.5 1538.5v1488.7c0 51.3-41.6 93-93 93h-2413.1c-51.4 0-93-41.7-93-93v-1488.7c0-51.4 41.6-93 93-93h2413.1c51.4 0 93 41.6 93 93z"/>
		<path id="&lt;Path&gt;" class="s9" d="m875.1 2496.7l156.4-100.6c33.9 45.7 83.8 79.8 143.8 92.8 56 12.2 111.5 4 159.1-19.6l101 156.8c-87.9 49-193.4 67.4-299.4 44.4-110.1-23.9-201.1-88.1-260.9-173.8z"/>
		<path id="&lt;Path&gt;" class="s10" d="m807.8 2160.6c26.2-121 101-218.8 199.5-277.5l100.6 156.4c-58.5 32.8-103.2 89.6-118.6 160.4-15.4 71.2 2.1 141.9 42.2 196.2l-156.4 100.6c-65.8-94.3-93.6-214.8-67.3-336.1z"/>
		<path id="&lt;Path&gt;" class="s0" d="m1007.3 1883.1c90-53.7 199.9-74.7 310.4-50.8 138.3 30 246.5 123.6 300.4 243.5l-159.4 102.6c-25.4-80.4-92-145.3-180.4-164.5-60.4-13.1-120.4-2.5-170.4 25.6z"/>
		<path id="&lt;Path&gt;" class="s11" d="m1464.4 2302.9c9.3-42.8 6.6-85.5-5.7-124.5l159.4-102.6c36.3 80.7 48 173.4 27.8 266.5-27.2 125.4-106.6 226-210.5 283.8l-101-156.8c64.1-31.6 113.6-91.1 130-166.4z"/>
		<path id="&lt;Path&gt;" class="s12" d="m3051.4 2510.6v15.5h-1199.1v-963.4h19.5v947.9z"/>
		<path id="&lt;Path&gt;" class="s13" d="m2097.6 2510.6h-122.7v-316.5h122.7z"/>
		<path id="&lt;Path&gt;" class="s14" d="m2276.7 2510.6h-122.7v-494.9h122.7z"/>
		<path id="&lt;Path&gt;" class="s15" d="m2465.5 2510.6h-122.6v-597.3h122.6z"/>
		<path id="&lt;Path&gt;" class="s16" d="m2652.4 2510.6h-122.7v-449.9h122.7z"/>
		<path id="&lt;Path&gt;" class="s17" d="m2839.3 2510.6h-122.7v-494.9h122.7z"/>
		<path id="&lt;Path&gt;" class="s18" d="m3028.1 2510.6h-122.7v-597.3h122.7z"/>
		<path id="&lt;Path&gt;" class="s1" d="m3032.4 2638.8h-1161.1c-10.5 0-19-8.6-19-19.1 0-10.5 8.5-19 19-19h1161.1c10.5 0 19 8.5 19 19 0 10.5-8.5 19.1-19 19.1z"/>
		<path id="&lt;Path&gt;" class="s1" d="m3032.4 2711.8h-1161.1c-10.5 0-19-8.6-19-19.1 0-10.5 8.5-19 19-19h1161.1c10.5 0 19 8.5 19 19 0 10.5-8.5 19.1-19 19.1z"/>
		<path id="&lt;Path&gt;" class="s1" d="m3032.4 2784.8h-1161.1c-10.5 0-19-8.6-19-19.1 0-10.5 8.5-19 19-19h1161.1c10.5 0 19 8.5 19 19 0 10.5-8.5 19.1-19 19.1z"/>
		<path id="&lt;Path&gt;" class="s1" d="m3032.4 2857.7h-1161.1c-10.5 0-19-8.5-19-19 0-10.5 8.5-19 19-19h1161.1c10.5 0 19 8.5 19 19 0 10.5-8.5 19-19 19z"/>
	</g>
	<g id="Layer 4">
		<path id="&lt;Path&gt;" class="s19" d="m1779.9 1369.8v7.9h-664.6q-1-12.7-1-25.7c0-187.1 150.2-339.3 336.6-342.3 0 0 0 0 0.1 0 184.4 16.5 328.9 171.4 328.9 360.1z"/>
		<path id="&lt;Path&gt;" class="s20" d="m3063.4 1369.8v1571h-1283.5v-1571c0-188.7-144.5-343.6-328.9-360.1h-0.1c-2.8-0.2-5.8-0.5-8.7-0.7v-0.8h1259.6c85.5 0 164.1 29.7 226 79.3 82.7 66.3 135.6 168.1 135.6 282.3z"/>
		<path id="&lt;Path&gt;" class="s21" d="m2394.5 1490.2h-328.4c-8.9 0-16.1-7.2-16.1-16.1 0-8.9 7.2-16.1 16.1-16.1h328.4c8.9 0 16.1 7.2 16.1 16.1 0 8.9-7.2 16.1-16.1 16.1z"/>
		<path id="&lt;Path&gt;" class="s22" d="m2394.5 1558.4h-328.4c-8.9 0-16.1-7.2-16.1-16.1 0-8.9 7.2-16.1 16.1-16.1h328.4c8.9 0 16.1 7.2 16.1 16.1 0 8.9-7.2 16.1-16.1 16.1z"/>
		<path id="&lt;Path&gt;" class="s23" d="m1964.7 1558.4h-54.2c-14.2 0-25.8-11.5-25.8-25.7v-61.3c0-14.2 11.6-25.8 25.8-25.8h54.2c14.2 0 25.7 11.6 25.7 25.8v61.3c0 14.2-11.5 25.7-25.7 25.7z"/>
		<path id="&lt;Path&gt;" class="s24" d="m2975.9 1490.2h-328.4c-8.9 0-16.2-7.2-16.2-16.1 0-8.9 7.3-16.1 16.2-16.1h328.4c8.9 0 16.1 7.2 16.1 16.1 0 8.9-7.2 16.1-16.1 16.1z"/>
		<path id="&lt;Path&gt;" class="s25" d="m2975.9 1558.4h-328.4c-8.9 0-16.2-7.2-16.2-16.1 0-8.9 7.3-16.1 16.2-16.1h328.4c8.9 0 16.1 7.2 16.1 16.1 0 8.9-7.2 16.1-16.1 16.1z"/>
		<path id="&lt;Path&gt;" class="s26" d="m2546.1 1558.4h-54.2c-14.3 0-25.8-11.5-25.8-25.7v-61.3c0-14.2 11.5-25.8 25.8-25.8h54.2c14.2 0 25.7 11.6 25.7 25.8v61.3c0 14.2-11.5 25.7-25.7 25.7z"/>
		<path id="&lt;Path&gt;" class="s27" d="m2394.5 1714.4h-328.4c-8.9 0-16.1-7.2-16.1-16.1 0-8.9 7.2-16.2 16.1-16.2h328.4c8.9 0 16.1 7.3 16.1 16.2 0 8.9-7.2 16.1-16.1 16.1z"/>
		<path id="&lt;Path&gt;" class="s28" d="m2394.5 1782.6h-328.4c-8.9 0-16.1-7.2-16.1-16.1 0-8.9 7.2-16.1 16.1-16.1h328.4c8.9 0 16.1 7.2 16.1 16.1 0 8.9-7.2 16.1-16.1 16.1z"/>
		<path id="&lt;Path&gt;" class="s29" d="m1964.7 1782.6h-54.2c-14.2 0-25.8-11.5-25.8-25.7v-61.3c0-14.3 11.6-25.8 25.8-25.8h54.2c14.2 0 25.7 11.5 25.7 25.8v61.3c0 14.2-11.5 25.7-25.7 25.7z"/>
		<path id="&lt;Path&gt;" class="s30" d="m2975.9 1714.4h-328.4c-8.9 0-16.2-7.2-16.2-16.1 0-8.9 7.3-16.2 16.2-16.2h328.4c8.9 0 16.1 7.3 16.1 16.2 0 8.9-7.2 16.1-16.1 16.1z"/>
		<path id="&lt;Path&gt;" class="s31" d="m2975.9 1782.6h-328.4c-8.9 0-16.2-7.2-16.2-16.1 0-8.9 7.3-16.1 16.2-16.1h328.4c8.9 0 16.1 7.2 16.1 16.1 0 8.9-7.2 16.1-16.1 16.1z"/>
		<path id="&lt;Path&gt;" class="s32" d="m2546.1 1782.6h-54.2c-14.3 0-25.8-11.5-25.8-25.7v-61.3c0-14.3 11.5-25.8 25.8-25.8h54.2c14.2 0 25.7 11.5 25.7 25.8v61.3c0 14.2-11.5 25.7-25.7 25.7z"/>
		<path id="&lt;Path&gt;" class="s33" d="m2394.5 1938.6h-328.4c-8.9 0-16.1-7.3-16.1-16.2 0-8.9 7.2-16.1 16.1-16.1h328.4c8.9 0 16.1 7.2 16.1 16.1 0 8.9-7.2 16.2-16.1 16.2z"/>
		<path id="&lt;Path&gt;" class="s34" d="m2394.5 2006.8h-328.4c-8.9 0-16.1-7.2-16.1-16.1 0-8.9 7.2-16.1 16.1-16.1h328.4c8.9 0 16.1 7.2 16.1 16.1 0 8.9-7.2 16.1-16.1 16.1z"/>
		<path id="&lt;Path&gt;" class="s35" d="m1964.7 2006.8h-54.2c-14.2 0-25.8-11.5-25.8-25.7v-61.4c0-14.2 11.6-25.7 25.8-25.7h54.2c14.2 0 25.7 11.5 25.7 25.7v61.4c0 14.2-11.5 25.7-25.7 25.7z"/>
		<path id="&lt;Path&gt;" class="s36" d="m2975.9 1938.6h-328.4c-8.9 0-16.2-7.3-16.2-16.2 0-8.9 7.3-16.1 16.2-16.1h328.4c8.9 0 16.1 7.2 16.1 16.1 0 8.9-7.2 16.2-16.1 16.2z"/>
		<path id="&lt;Path&gt;" class="s37" d="m2975.9 2006.8h-328.4c-8.9 0-16.2-7.2-16.2-16.1 0-8.9 7.3-16.1 16.2-16.1h328.4c8.9 0 16.1 7.2 16.1 16.1 0 8.9-7.2 16.1-16.1 16.1z"/>
		<path id="&lt;Path&gt;" class="s38" d="m2546.1 2006.8h-54.2c-14.3 0-25.8-11.5-25.8-25.7v-61.4c0-14.2 11.5-25.7 25.8-25.7h54.2c14.2 0 25.7 11.5 25.7 25.7v61.4c0 14.2-11.5 25.7-25.7 25.7z"/>
		<path id="&lt;Path&gt;" class="s39" d="m2394.5 2162.7h-328.4c-8.9 0-16.1-7.2-16.1-16.1 0-8.9 7.2-16.1 16.1-16.1h328.4c8.9 0 16.1 7.2 16.1 16.1 0 8.9-7.2 16.1-16.1 16.1z"/>
		<path id="&lt;Path&gt;" class="s40" d="m2394.5 2231h-328.4c-8.9 0-16.1-7.2-16.1-16.1 0-8.9 7.2-16.1 16.1-16.1h328.4c8.9 0 16.1 7.2 16.1 16.1 0 8.9-7.2 16.1-16.1 16.1z"/>
		<path id="&lt;Path&gt;" class="s41" d="m1964.7 2231h-54.2c-14.2 0-25.8-11.5-25.8-25.7v-61.4c0-14.2 11.6-25.7 25.8-25.7h54.2c14.2 0 25.7 11.5 25.7 25.7v61.4c0 14.2-11.5 25.7-25.7 25.7z"/>
		<path id="&lt;Path&gt;" class="s42" d="m2975.9 2162.7h-328.4c-8.9 0-16.2-7.2-16.2-16.1 0-8.9 7.3-16.1 16.2-16.1h328.4c8.9 0 16.1 7.2 16.1 16.1 0 8.9-7.2 16.1-16.1 16.1z"/>
		<path id="&lt;Path&gt;" class="s43" d="m2975.9 2231h-328.4c-8.9 0-16.2-7.2-16.2-16.1 0-8.9 7.3-16.1 16.2-16.1h328.4c8.9 0 16.1 7.2 16.1 16.1 0 8.9-7.2 16.1-16.1 16.1z"/>
		<path id="&lt;Path&gt;" class="s44" d="m2546.1 2231h-54.2c-14.3 0-25.8-11.5-25.8-25.7v-61.4c0-14.2 11.5-25.7 25.8-25.7h54.2c14.2 0 25.7 11.5 25.7 25.7v61.4c0 14.2-11.5 25.7-25.7 25.7z"/>
		<path id="&lt;Path&gt;" class="s8" d="m1993.1 1476.3l-69.8 62c-1.8 1.6-4.6 1.4-6.2-0.4l-3.2-3.7-32-32.1c-1.7-1.7-1.7-4.5 0-6.2l0.4-0.4c1.7-1.7 4.5-1.7 6.2 0l29.5 29.5c1.6 1.7 4.3 1.7 6 0.2l62.9-55.9c1.8-1.6 4.6-1.5 6.2 0.4l0.4 0.4c1.6 1.8 1.4 4.5-0.4 6.2z"/>
		<path id="&lt;Path&gt;" class="s8" d="m1993.1 1698.7l-69.8 62c-1.8 1.6-4.6 1.5-6.2-0.4l-3.2-3.6v-0.1l-32-32.1c-1.7-1.7-1.7-4.4 0-6.1l0.4-0.4c1.7-1.7 4.5-1.8 6.2 0l29.5 29.5c1.6 1.6 4.3 1.7 6 0.2l62.9-56c1.8-1.6 4.6-1.4 6.2 0.4l0.4 0.4c1.6 1.8 1.4 4.6-0.4 6.2z"/>
		<path id="&lt;Path&gt;" class="s8" d="m1993.1 1918.4l-69.8 62c-1.8 1.6-4.6 1.5-6.2-0.3l-3.2-3.7v-0.1l-32-32.1c-1.7-1.7-1.7-4.4 0-6.1l0.4-0.4c1.7-1.7 4.5-1.7 6.2 0l29.5 29.5c1.6 1.6 4.3 1.7 6 0.2l62.9-56c1.8-1.6 4.6-1.4 6.2 0.4l0.4 0.4c1.6 1.8 1.4 4.6-0.4 6.2z"/>
		<path id="&lt;Path&gt;" class="s8" d="m1993.1 2142.5l-69.8 62c-1.8 1.6-4.6 1.4-6.2-0.4l-3.2-3.6v-0.1l-32-32.1c-1.7-1.7-1.7-4.4 0-6.1l0.4-0.4c1.7-1.8 4.5-1.8 6.2-0.1l29.5 29.6c1.6 1.6 4.3 1.7 6 0.1l62.9-55.9c1.8-1.6 4.6-1.4 6.2 0.4l0.4 0.4c1.6 1.8 1.4 4.6-0.4 6.2z"/>
		<path id="&lt;Path&gt;" class="s8" d="m2574.5 1476.3l-69.8 62c-1.8 1.6-4.6 1.4-6.2-0.4l-3.3-3.7h0.1l-32-32.1c-1.7-1.7-1.7-4.5 0-6.2l0.4-0.4c1.7-1.7 4.4-1.7 6.2 0l29.5 29.5c1.6 1.7 4.2 1.7 6 0.2l62.9-55.9c1.8-1.6 4.6-1.5 6.2 0.4l0.3 0.4c1.6 1.8 1.5 4.5-0.3 6.2z"/>
		<path id="&lt;Path&gt;" class="s8" d="m2574.5 1698.7l-69.8 62c-1.8 1.6-4.6 1.5-6.2-0.4l-3.3-3.6 0.1-0.1-32-32.1c-1.7-1.7-1.7-4.4 0-6.1l0.4-0.4c1.7-1.7 4.4-1.8 6.2 0l29.5 29.5c1.6 1.6 4.2 1.7 6 0.2l62.9-56c1.8-1.6 4.6-1.4 6.2 0.4l0.3 0.4c1.6 1.8 1.5 4.6-0.3 6.2z"/>
		<path id="&lt;Path&gt;" class="s8" d="m2574.5 1918.4l-69.8 62c-1.8 1.6-4.6 1.5-6.2-0.3l-3.3-3.7 0.1-0.1-32-32.1c-1.7-1.7-1.7-4.4 0-6.1l0.4-0.4c1.7-1.7 4.4-1.7 6.2 0l29.5 29.5c1.6 1.6 4.2 1.7 6 0.2l62.9-56c1.8-1.6 4.6-1.4 6.2 0.4l0.3 0.4c1.6 1.8 1.5 4.6-0.3 6.2z"/>
		<path id="&lt;Path&gt;" class="s8" d="m2574.5 2142.5l-69.8 62c-1.8 1.6-4.6 1.4-6.2-0.4l-3.3-3.6 0.1-0.1-32-32.1c-1.7-1.7-1.7-4.4 0-6.1l0.4-0.4c1.7-1.8 4.4-1.8 6.2-0.1l29.5 29.6c1.6 1.6 4.2 1.7 6 0.1l62.9-55.9c1.8-1.6 4.6-1.4 6.2 0.4l0.3 0.4c1.6 1.8 1.5 4.6-0.3 6.2z"/>
		<path id="&lt;Path&gt;" class="s45" d="m2394.5 2386.9h-328.4c-8.9 0-16.1-7.2-16.1-16.1 0-8.9 7.2-16.1 16.1-16.1h328.4c8.9 0 16.1 7.2 16.1 16.1 0 8.9-7.2 16.1-16.1 16.1z"/>
		<path id="&lt;Path&gt;" class="s46" d="m2394.5 2455.2h-328.4c-8.9 0-16.1-7.2-16.1-16.1 0-8.9 7.2-16.1 16.1-16.1h328.4c8.9 0 16.1 7.2 16.1 16.1 0 8.9-7.2 16.1-16.1 16.1z"/>
		<path id="&lt;Path&gt;" class="s47" d="m1964.7 2455.2h-54.2c-14.2 0-25.8-11.5-25.8-25.7v-61.4c0-14.2 11.6-25.7 25.8-25.7h54.2c14.2 0 25.7 11.5 25.7 25.7v61.4c0 14.2-11.5 25.7-25.7 25.7z"/>
		<path id="&lt;Path&gt;" class="s48" d="m2975.9 2386.9h-328.4c-8.9 0-16.2-7.2-16.2-16.1 0-8.9 7.3-16.1 16.2-16.1h328.4c8.9 0 16.1 7.2 16.1 16.1 0 8.9-7.2 16.1-16.1 16.1z"/>
		<path id="&lt;Path&gt;" class="s49" d="m2975.9 2455.2h-328.4c-8.9 0-16.2-7.2-16.2-16.1 0-8.9 7.3-16.1 16.2-16.1h328.4c8.9 0 16.1 7.2 16.1 16.1 0 8.9-7.2 16.1-16.1 16.1z"/>
		<path id="&lt;Path&gt;" class="s50" d="m2546.1 2455.2h-54.2c-14.3 0-25.8-11.5-25.8-25.7v-61.4c0-14.2 11.5-25.7 25.8-25.7h54.2c14.2 0 25.7 11.5 25.7 25.7v61.4c0 14.2-11.5 25.7-25.7 25.7z"/>
		<path id="&lt;Path&gt;" class="s51" d="m2394.5 2611.1h-328.4c-8.9 0-16.1-7.2-16.1-16.1 0-8.9 7.2-16.1 16.1-16.1h328.4c8.9 0 16.1 7.2 16.1 16.1 0 8.9-7.2 16.1-16.1 16.1z"/>
		<path id="&lt;Path&gt;" class="s52" d="m2394.5 2679.4h-328.4c-8.9 0-16.1-7.2-16.1-16.1 0-8.9 7.2-16.2 16.1-16.2h328.4c8.9 0 16.1 7.3 16.1 16.2 0 8.9-7.2 16.1-16.1 16.1z"/>
		<path id="&lt;Path&gt;" class="s53" d="m1964.7 2679.4h-54.2c-14.2 0-25.8-11.5-25.8-25.8v-61.3c0-14.2 11.6-25.7 25.8-25.7h54.2c14.2 0 25.7 11.5 25.7 25.7v61.3c0 14.3-11.5 25.8-25.7 25.8z"/>
		<path id="&lt;Path&gt;" class="s54" d="m2975.9 2611.1h-328.4c-8.9 0-16.2-7.2-16.2-16.1 0-8.9 7.3-16.1 16.2-16.1h328.4c8.9 0 16.1 7.2 16.1 16.1 0 8.9-7.2 16.1-16.1 16.1z"/>
		<path id="&lt;Path&gt;" class="s55" d="m2975.9 2679.4h-328.4c-8.9 0-16.2-7.2-16.2-16.1 0-8.9 7.3-16.2 16.2-16.2h328.4c8.9 0 16.1 7.3 16.1 16.2 0 8.9-7.2 16.1-16.1 16.1z"/>
		<path id="&lt;Path&gt;" class="s56" d="m2546.1 2679.4h-54.2c-14.3 0-25.8-11.5-25.8-25.8v-61.3c0-14.2 11.5-25.7 25.8-25.7h54.2c14.2 0 25.7 11.5 25.7 25.7v61.3c0 14.3-11.5 25.8-25.7 25.8z"/>
		<path id="&lt;Path&gt;" class="s8" d="m1993.1 2371.3l-69.8 62c-1.8 1.6-4.6 1.4-6.2-0.4l-3.2-3.7-32-32.1c-1.7-1.7-1.7-4.5 0-6.2l0.4-0.4c1.7-1.7 4.5-1.7 6.2 0l29.5 29.5c1.6 1.7 4.3 1.8 6 0.2l62.9-55.9c1.8-1.6 4.6-1.5 6.2 0.4l0.4 0.4c1.6 1.8 1.4 4.6-0.4 6.2z"/>
		<path id="&lt;Path&gt;" class="s8" d="m1993.1 2591l-69.8 62c-1.8 1.6-4.6 1.4-6.2-0.4l-3.2-3.7-32-32.1c-1.7-1.7-1.7-4.5 0-6.2l0.4-0.4c1.7-1.7 4.5-1.7 6.2 0l29.5 29.5c1.6 1.7 4.3 1.8 6 0.2l62.9-55.9c1.8-1.6 4.6-1.4 6.2 0.4l0.4 0.4c1.6 1.8 1.4 4.6-0.4 6.2z"/>
		<path id="&lt;Path&gt;" class="s8" d="m2574.5 2371.3l-69.8 62c-1.8 1.6-4.6 1.4-6.2-0.4l-3.3-3.7h0.1l-32-32.1c-1.7-1.7-1.7-4.5 0-6.2l0.4-0.4c1.7-1.7 4.4-1.7 6.2 0l29.5 29.5c1.6 1.7 4.2 1.8 6 0.2l62.9-55.9c1.8-1.6 4.6-1.5 6.2 0.4l0.3 0.4c1.6 1.8 1.5 4.6-0.3 6.2z"/>
		<path id="&lt;Path&gt;" class="s8" d="m2574.5 2591l-69.8 62c-1.8 1.6-4.6 1.4-6.2-0.4l-3.3-3.7h0.1l-32-32.1c-1.7-1.7-1.7-4.5 0-6.2l0.4-0.4c1.7-1.7 4.4-1.7 6.2 0l29.5 29.5c1.6 1.7 4.2 1.8 6 0.2l62.9-55.9c1.8-1.6 4.6-1.4 6.2 0.4l0.3 0.4c1.6 1.8 1.5 4.6-0.3 6.2z"/>
	</g>
	<g id="Layer 8">
		<g id="&lt;Group&gt;">
			<path id="&lt;Path&gt;" class="s57" d="m1035 2990.6h-512.4c-18.7 0-33.9-15.1-33.9-33.8v-462.6c0-18.7 15.2-33.8 33.9-33.8h512.4c18.7 0 33.9 15.1 33.9 33.8v462.6c0 18.7-15.2 33.8-33.9 33.8z"/>
			<path id="&lt;Compound Path&gt;" fill-rule="evenodd" class="s58" d="m1029.9 2995.8h-502.2c-25.3 0-45.8-15.5-45.8-34.6v-471.4c0-19.1 20.5-34.6 45.8-34.6h502.2c25.3 0 45.8 15.5 45.8 34.6v471.4c0 19.1-20.5 34.6-45.8 34.6zm-502.2-530.3c-17.7 0-32.1 10.9-32.1 24.3v471.4c0 13.4 14.4 24.2 32.1 24.2h502.2c17.7 0 32.1-10.8 32.1-24.2v-471.4c0-13.4-14.4-24.3-32.1-24.3z"/>
		</g>
		<g id="&lt;Group&gt;">
			<path id="&lt;Path&gt;" class="s59" d="m1021 2524.4c0 5.1-5.5 9.2-12.2 9.2h-467.8c-6.7 0-12.1-4.1-12.1-9.2 0-5 5.4-9.1 12.1-9.1h467.8c6.7 0 12.2 4.1 12.2 9.1z"/>
			<path id="&lt;Path&gt;" class="s59" d="m1021 2564.5c0 5.1-5.5 9.2-12.2 9.2h-467.8c-6.7 0-12.1-4.1-12.1-9.2 0-5.1 5.4-9.2 12.1-9.2h467.8c6.7 0 12.2 4.1 12.2 9.2z"/>
			<path id="&lt;Path&gt;" class="s59" d="m1021 2608.6c0 5.1-5.5 9.2-12.2 9.2h-467.8c-6.7 0-12.1-4.1-12.1-9.2 0-5 5.4-9.2 12.1-9.2h467.8c6.7 0 12.2 4.2 12.2 9.2z"/>
			<path id="&lt;Path&gt;" class="s59" d="m1021 2648.7c0 5.1-5.5 9.2-12.2 9.2h-467.8c-6.7 0-12.1-4.1-12.1-9.2 0-5.1 5.4-9.2 12.1-9.2h467.8c6.7 0 12.2 4.1 12.2 9.2z"/>
			<path id="&lt;Path&gt;" class="s59" d="m1021 2688.7c0 5.1-5.5 9.2-12.2 9.2h-467.8c-6.7 0-12.1-4.1-12.1-9.2 0-5 5.4-9.1 12.1-9.1h467.8c6.7 0 12.2 4.1 12.2 9.1z"/>
			<path id="&lt;Path&gt;" class="s59" d="m1021 2728.8c0 5.1-5.5 9.2-12.2 9.2h-467.8c-6.7 0-12.1-4.1-12.1-9.2 0-5.1 5.4-9.2 12.1-9.2h467.8c6.7 0 12.2 4.1 12.2 9.2z"/>
			<path id="&lt;Path&gt;" class="s59" d="m1021 2772.9c0 5.1-5.5 9.2-12.2 9.2h-467.8c-6.7 0-12.1-4.1-12.1-9.2 0-5 5.4-9.1 12.1-9.1h467.8c6.7 0 12.2 4.1 12.2 9.1z"/>
			<path id="&lt;Path&gt;" class="s59" d="m1021 2813c0 5.1-5.5 9.2-12.2 9.2h-467.8c-6.7 0-12.1-4.1-12.1-9.2 0-5.1 5.4-9.2 12.1-9.2h467.8c6.7 0 12.2 4.1 12.2 9.2z"/>
		</g>
		<path id="&lt;Path&gt;" class="s60" d="m789 2765.4h302.3c15.1 0 27.3 9.2 27.3 20.6v65.8 74.8 296.1c0 11.4-12.2 20.6-27.3 20.6h-646.7c-15.1 0-27.3-9.2-27.3-20.6v-350.2c0-11.4 12.2-20.7 27.3-20.7h272.2c12.4 0 23.3-6.3 26.5-15.4l19.3-55.6c3.1-9.1 14-15.4 26.4-15.4z"/>
	</g>
	<g id="Layer 7">
		<path id="&lt;Path&gt;" class="s61" d="m1294.1 1208.5l-4.3 2.8-20.3 11.2-15 3-34.1-26.1-12.3-36.7c0 0-40.2-73.7-16.8-99.4 0 0 25.7 5.8 38 18.8 12.3 13 64.8 126.4 64.8 126.4z"/>
		<path id="&lt;Path&gt;" class="s62" d="m3330.6 2392.6c-1.3 5.7-2.3 10-2.5 10.9-0.6 2.4-5.5 3.3-9.7 0-4.3-3.3-16.1-32.7-16.1-32.7 0 0-1.2-10.3-8.8-15.2-7.5-4.8-14.5 6.7-30 12.5-15.4 5.7-9.3-29.4-16.3-39.4-5.9-8.5-23.3 5.6-28.5 10.2-0.8 0.7-1.4 1.2-1.5 1.3-6.7-15.2 2.7-37.6 2.7-37.6 56.1-20.6 84.5-4.8 91.2 0 6.7 4.9 23.3 47.9 24.2 57.6 0.6 6.3-2.4 21.7-4.7 32.4z"/>
		<path id="&lt;Path&gt;" class="s63" d="m3349 2450.4c-12.9 29.3-55.2 47.7-70.8 47-15.7-0.7-13.7-33.4-13.7-33.4v-21.8c0 0-15.7 7.5-31.3 0-15.7-7.5-16-102-16-102 0.1-0.1 0.7-0.6 1.5-1.3 5.2-4.6 22.6-18.7 28.5-10.2 7 10 0.9 45.1 16.3 39.4 15.5-5.8 22.5-17.3 30-12.5 7.6 4.9 8.8 15.2 8.8 15.2 0 0 11.8 29.4 16.1 32.7 4.2 3.3 9.1 2.4 9.7 0 0.2-0.9 1.2-5.2 2.5-10.9 3.7 59.3 18.4 57.8 18.4 57.8z"/>
		<path id="&lt;Path&gt;" class="s64" d="m3440.6 2698.2c-4.6 15.5-12.3 57.3-12.3 57.3l-1.9-0.4-35.3-6c0 0-3.2-81.8-2.3-100 0.9-18.1-8.2-17.7-8.2-17.7 0 0-1.4 55.9-5 68.2-3.6 12.2-7.7 39.5-5.4 55 0.9 6.6 1.7 13.4 2.2 19 0.6 7.4 0.9 12.8 0.9 12.8-9.1-5.8-139.9-7.6-181.7-8.1-8-0.1-12.7-0.1-12.7-0.1 0 0 11.8-40 20-65.4 8.1-25.5 11-157.9 11-157.9 0 0-78.4 60.6-85.1 62.7-6.7 2.2-18.8 5.2-36.6-1.5-17.9-6.6-44.3-53.6-44.3-53.6 19.4 11.2 36.7-33.6 36.7-33.6 4.2 11.2 27.5 28.2 47.2 26.6 19.7-1.5 80.6-71.4 80.6-71.4 0 0 14.5-1.9 25.2-4.6 10.5-2.7 30.9-18.8 30.9-18.8v3.3c0 0-2 32.7 13.7 33.4 15.6 0.7 57.9-17.7 70.8-47 17.1-2.1 65.2 23.8 68.9 26.1 3.6 2.3 2.7 27.3 2.7 57.2 0 30 11.4 92.3 16.3 105.9 5 13.6 8.2 43.2 3.7 58.6z"/>
		<path id="&lt;Path&gt;" class="s63" d="m3426.4 2755.1c0 8.5-16 73.1-20.2 85.2-4.2 12.1-5.1 47.2-6.7 49.4-1.5 2.1-23 13-33.3 14.2q-1.4 0.2-2.8 0.1c-9.3-0.5-17.5-8.1-17.8-8.9-0.3-0.9 4.3-3 6.4-8.8 2.1-5.7 1.2-16.9 1.2-16.9l-4.5 7.5c0 0-7.6 8.8-10.3 0-2.8-8.8 36.9-55.4 41.8-58.4 4.8-3.1 8.4-22.1 8.7-29.7 0.3-7.6 2.2-39.7 2.2-39.7z"/>
		<path id="&lt;Path&gt;" class="s63" d="m3043.9 2562.5l-22.7-62.4c0 0-24.8-17.2-26-27.5-1.2-10.3 0-31.2 0-31.2 0 0 13.9-4.9 20.6-5.5 6.6-0.6 22.4 3.9 22.4 3.9l0.6 8.5c0 0 6.3-5.8 9.1 2 2.7 7.7-4 17.7-4 17.7l4.6 18.8 32.9 43.9c0 0-16.3 43.6-37.5 31.8z"/>
		<path id="&lt;Path&gt;" class="s65" d="m3338.4 2876.9c2.7 8.8 10.3 0 10.3 0l4.5-7.5c0 0 0.9 11.2-1.2 16.9-2.1 5.8-6.7 7.9-6.4 8.8 0.3 0.8 8.5 8.4 17.8 8.9h-0.1c0 0-10.2 81.4-10.2 105.9 0 24.5 20.5 45 16.4 111.8-4.1 66.8-34.1 128.1-36.1 133.6-18.4 3.4-40.3-16.4-40.3-16.4 0 0 12.3-88.6 10.3-124-2.1-35.5-13.7-70.2-22.5-90.7-8.9-20.4-8.9-108.3-8.9-108.3l-53.1 75.6c0 0-10.3 35.4-6.9 47.7 3.5 12.3 5.5 100.9 0 147.9-2.5 21.9-5.2 39.4-7.3 51.8-1 5.5-1.8 9.9-2.5 13.4-1.1 5.5-1.7 8.4-1.7 8.4-23.2 8.2-59.3-28.6-59.3-28.6 0 0 0 0 4.7-2.7 4.8-2.8-1.3-201.1 0-241.3 1.4-40.2 45.7-209.8 45.7-209.8 41.8 0.5 172.6 2.3 181.7 8.1l6.9 32.1c-4.9 3-44.6 49.6-41.8 58.4z"/>
		<path id="&lt;Path&gt;" class="s0" d="m3202.2 3252.3l-0.6 50.7-20.9 1.8-130.9-4.6v-18.1c0 0 27.8-4.1 45.5-10 17.7-5.9 45.9-40 45.9-40 0 0 36.1 36.8 59.3 28.6 0 0 0.6-2.9 1.7-8.4q0 0 0 0z"/>
		<path id="&lt;Path&gt;" class="s0" d="m3337 3300.2c-1.8 8.7-41.8 16.4-41.8 16.4h-50.4c0 0 0-4.6 0-10 0-5.5 48.4-67.7 48.4-67.7 0 0 21.8 19.8 40.2 16.4 0 0 5.4 36.3 3.6 44.9z"/>
		<path id="&lt;Compound Path&gt;" fill-rule="evenodd" class="s62" d="m2882.2 2266.5c41 25.1 55.5 77.2 34.6 119.5l119.4 73.1-8.8 14.3-119.4-73c-28.2 37.9-81.2 48.7-122.2 23.6-43.5-26.6-57.2-83.5-30.6-127 26.6-43.4 83.5-57.1 127-30.5zm-6.9 11.1c-37.2-22.8-86.1-11-108.9 26.3-22.8 37.3-11.1 86.1 26.2 109 37.3 22.8 86.2 11 109-26.3 22.8-37.3 11-86.2-26.3-109z"/>
		<path id="&lt;Path&gt;" class="s66" d="m3375.6 2699.6c-3.6 12.2-7.7 39.5-5.4 55 0.9 6.6 1.7 13.4 2.2 19 0 0-19.5-34.9-23.4-56.8-3.8-21.8-1.1-74.9 2.5-85.4 3.7-10.4 13.7-73.6 17.8-66.9 4 6.8 11.3 66.9 11.3 66.9 0 0-1.4 55.9-5 68.2z"/>
		<path id="&lt;Path&gt;" class="s67" d="m3272 2880.4c-1.3 8.2 0 35.5 0 35.5l-53.1 75.6c0 0-10.3 35.4-6.9 47.7 3.5 12.3 5.5 100.9 0 147.9-2.5 21.9-5.2 39.4-7.3 51.8 0 0-2.2-8.9-2.5-15.7-0.3-6.8-1.1-164.2-6.5-208.5-5.5-44.3 77.7-142.5 76.3-134.3z"/>
		<path id="&lt;Path&gt;" class="s68" d="m1762.4 3078.7l62.9 459.4h-31.5c0 0-69.3-196.8-74-212.2-4.8-15.5-1.2-13.1-7.2-22.6-5.9-9.5-40.6-91.3-40.6-91.3l-50.8 346.2h-33c0 0-23.7-186.1-22.6-208.6 1.2-22.6 2.3-60.5 0-71.2-2.3-10.6-11.8-66.4-11.8-81.8 0-15.4 9.9-101.9 9.9-101.9 0 0 53.7-30.8 57.5-29.7 3.7 1.2 141.2 13.7 141.2 13.7z"/>
		<path id="&lt;Path&gt;" class="s0" d="m1621.8 3538.1c0 0 10 10.9 28.7 15.4 18.7 4.4 36.5 17.8 38.2 23.1 1.8 5.3 0 9.8 0 9.8l-106.4-3.6c0 0-3.4-51.6 0-50.7 3.3 0.9 5.9 0 5.9 0z"/>
		<path id="&lt;Path&gt;" class="s0" d="m1825.3 3538.1c0 0 10 10.9 28.7 15.4 18.7 4.4 36.5 17.8 38.2 23.1 1.8 5.3 0 9.8 0 9.8l-106.4-3.6c0 0-3.4-51.6 0-50.7 3.3 0.9 6 0 6 0z"/>
		<path id="&lt;Path&gt;" class="s62" d="m1605.3 2639.3c-5.9-16.8-2.3-35.4 4.2-43.1 6.5-7.7 21.9 1.7 48.6 1.7 26.7 0 34.4-21.3 43.3-13.6 7.7 6.7 9.2 25.6-2 40.6-1.6 2.2-3.5 4.3-5.7 6.2-17.2 15.5-41.5 4.2-41.5 4.2 0 0-7.7 11.9-11.9 16.6-4.1 4.7 7.7 30.8 14.6 37.9 6.9 7.1 18.6 11.3 27.5 10.7 8.9-0.6 20.8-8.9 20.8-4.7 0 4.1-1.2 27.8-1.2 27.8-3.9 4.7-9.4 5.7-15.5 4.8-11.7-1.5-25.2-9.9-31.6-11.9-9.7-2.9-18.1-40.3-16.9-42.7 1.1-2.4-4.8-18.3-13.7-16-8.9 2.4 3.6 27.9 5.9 33.2 1.8 3.9 0.3 15.5-4.1 21.6-1.6 2.2-3.6 3.7-5.9 3.9-8.9 0.6-16-19-14.9-26.7 1.2-7.7 6-33.8 0-50.5z"/>
		<path id="&lt;Path&gt;" class="s69" d="m1640.3 2651.9c4.2-4.7 11.9-16.6 11.9-16.6 0 0 24.3 11.3 41.5-4.2 2.2-1.9 4.1-4 5.7-6.2 0 0 6.1 45.4 4.9 50.7-1.1 5.3-1.1 20.2-1.1 20.2 0-4.2-11.9 4.1-20.8 4.7-8.9 0.6-20.6-3.6-27.5-10.7-6.9-7.1-18.7-33.2-14.6-37.9z"/>
		<path id="&lt;Path&gt;" class="s69" d="m1630.2 2691c-2.3-5.3-14.8-30.8-5.9-33.2 8.9-2.3 14.8 13.6 13.7 16-1.2 2.4 7.2 39.8 16.9 42.7 6.4 2 19.9 10.4 31.6 11.9l2.6 17.1 0.6 4.2c-24.1 25.3-56.9-4.7-56.9-4.7l-1.1-5.6-5.6-26.8c4.4-6.1 5.9-17.7 4.1-21.6z"/>
		<path id="&lt;Path&gt;" class="s70" d="m1554.4 2788.8c21.9-26.7 77.3-49.4 77.3-49.4l1.1 5.6c0 0 32.8 30 56.9 4.7l-0.6-4.2q0.3 0 0.6 0c13.9 1.2 80.4 34.4 80.4 34.4l66.4 27.3-18.4 60.4c0 0-65.7-17.1-65.7-8.2 0 8.8 2.9 66.3 10 117.3 7.1 51 0 102 0 102-33.2 32-198.7 16-198.7 16-8.9-22.7-7.5-69.2-3.4-112.6 48.1-3.4 116.9-11.6 119.7-13.7 4.2-2.9 14.3 4.8 22 3.6 7.7-1.2 38.5 3.5 42.6 0 4.2-3.6 10.1-14.2 6.6-15.4-3.6-1.2-56.9 2.3-61.5 0-4.5-2.4 1.6-11.9 4-13.7 2.3-1.7 38.5-2.9 38.5-2.9 0 0 0.6-6-3.5-8.3-4.2-2.4-32.1-6-39-3.6-6.9 2.4-22.1 13.1-23.6 16-1.1 2.1-65 4.3-102 3.1 4.4-35.3 9.2-62.4 9.2-62.4l-29.6 45.7c-11.4-30.8-35.3-40.8-44.4-43.5-2.2-0.7-3.6-1-3.6-1 0 0 36.7-70.5 58.7-97.2z"/>
		<path id="&lt;Path&gt;" class="s69" d="m1499.3 2887c9.1 2.7 33 12.7 44.4 43.5 0 0-8.3 7.7-5.3 13.6 0.8 1.7 11.2 2.7 25.7 3.1 37 1.2 100.9-1 102-3.1 1.5-2.9 16.7-13.6 23.6-16 6.9-2.4 34.8 1.2 39 3.6 4.1 2.3 3.5 8.3 3.5 8.3 0 0-36.2 1.2-38.5 2.9-2.4 1.8-8.5 11.3-4 13.7 4.6 2.3 57.9-1.2 61.5 0 3.5 1.2-2.4 11.8-6.6 15.4-4.1 3.5-34.9-1.2-42.6 0-7.7 1.2-17.8-6.5-22-3.6-2.8 2.1-71.6 10.3-119.7 13.7-21.6 1.5-38.9 2-44.4 0.6-17.8-4.8-26.7-3.6-33.8-21.4-7.2-17.8 17.2-74.3 17.2-74.3z"/>
		<path id="&lt;Path&gt;" class="s0" d="m1682.7 2943.5l131.2-6.2 0.7 16.3-131.2 6.1z"/>
		<path id="&lt;Path&gt;" class="s71" d="m1834.3 2827.2h184.2l-23.1 129.8h-184.2z"/>
		<path id="&lt;Path&gt;" class="s69" d="m1833.5 2817c0 0 9.9 2.6 11.9 1.9 2-0.8 73.5-151.8 72.3-163.2-1.1-11.5-8.1-32.5-2.8-43.1 5.2-10.7 4 24.5 16.7 19.7 12.6-4.7 31.6-49.8 35.5-54.9 4-5.1 9.1 30.4 2.8 44.7-6.3 14.2-22.1 37.9-24.1 43.8-2 5.9-54.9 161.3-54.9 161.3h-56.6l-7.5 42.2-8.7-1.8z"/>
		<path id="&lt;Path&gt;" class="s62" d="m1138.8 1001.8c-0.8 3-2.7 3.6-5.1 3-2.4-0.8-5.4-2.9-8.3-5.2-5.6-4.5 2.2-23.5 0-29-2.2-5.6-10.1 1.1-26.3 3.9-16.2 2.8-11.7-11.8-30.7-12.3-19-0.6-19.5 24.6-19.5 24.6-15.5-14.9-21-36.8-14.1-55.4 5.1-14 18.6-30.1 34-30.3 18.8-0.3 24.9 23.5 50.6 24.7 8.5 0.4 13.3-1.9 19.2 1.9 8.5 5.4 9.7 17.3 10.8 27.8 2.3 21.8-6.6 31.9-10.6 46.3z"/>
		<path id="&lt;Path&gt;" class="s69" d="m1133.7 1004.8c0 0-2.2 18.8-2.2 21.1 0 1-0.8 8.1-1.7 15.6-1.1 9-2.3 18.4-2.3 18.4-36.8 48.6-60.3 2.3-60.3 2.3l-2.8-7.5v-18.6c-3.7-3.7-17.2-47.8-15.6-49.3 0 0 0.6-25.2 19.6-24.6 18.9 0.5 14.5 15.1 30.7 12.3 16.2-2.8 24-9.5 26.2-3.9 2.2 5.5-5.6 24.5 0 29 2.9 2.3 5.9 4.4 8.4 5.2z"/>
		<path id="&lt;Path&gt;" class="s69" d="m1285.1 1260.4c-7.2 10.7-20.6 10.1-26.2 10.7q-0.5 0-1.7-0.4c-15-4.8-113.5-55.6-116.2-58.3-2.8-2.8-13.4-0.5-13.4-0.5l-12.3-10.1c0 0-10.6-23.5 2.8-31.8 13.4-8.4 16.2 3.3 19 1.6 2.8-1.6 2.3-1.6 6.2-5.5 3.9-4 7.2 5.5 12.8 17.3 5.6 11.7 71.5 41.9 79.3 43.5 3.8 0.8 11.8-0.2 19.1-1.4 7.9-1.4 15-3 15-3l20.3-11.2-0.7 6.8c0 0 3.3 31.7-4 42.3z"/>
		<path id="&lt;Path&gt;" class="s72" d="m1260.6 1326.9c0 0-82.3 10.7-146.2 13.2l-29.8-101.8-72.5 1.4 2.5-33.1 10.8-147.8 39.1-19.3v15.2l2.8 7.5c0 0 23.5 46.3 60.3-2.3 0 0 1.2-9.4 2.2-18.4l61.5 21.8c0 0-8.4 12.3-6.1 30.7 2.2 18.4 20.6 62.6 22.9 68.7 2.2 6.1 46.4 62.8 46.4 62.8-7.3 1.2-15.3 2.2-19.1 1.4-7.8-1.6-73.7-31.8-79.3-43.5-5.6-11.8-8.9-21.3-12.8-17.3-3.9 3.9-3.4 3.9-6.2 5.5-2.8 1.7-5.6-10-19-1.6-13.4 8.3-2.8 31.8-2.8 31.8l12.3 10.1c0 0 10.6-2.3 13.4 0.5 2.7 2.7 101.2 53.5 116.2 58.3z"/>
		<path id="&lt;Path&gt;" class="s73" d="m1025.4 1058.8l-10.8 147.8c-4.2 2.6-8.3 4-12.2 4.3-14.9 1.5-27.4-10.5-32.9-17-1.9-2.2-3-3.8-3-3.8 0 0 26-104.2 31.8-113.4 5.9-9.2 27.1-17.9 27.1-17.9z"/>
		<path id="&lt;Path&gt;" class="s69" d="m1002.4 1210.9l-0.1 0.2-14.1 29.1-33.9-1.9 15.2-44.4c5.5 6.5 18 18.5 32.9 17z"/>
		<path id="&lt;Path&gt;" class="s74" d="m1119 1355.7h-164.7l-8.7-28.4c16.9 1.9 17.3-14.2 13.2-30.3-4.1-16.2-25.2-8.4-25.2-8.4l-14.9-48.4 35.6-1.9 33.9 1.9 23.9-0.5 72.5-1.4 29.8 101.8z"/>
		<path id="&lt;Path&gt;" class="s75" d="m945.6 1327.3c-17-1.9-12-38.7-12-38.7 0 0 21.1-7.8 25.2 8.4 4.1 16.1 3.7 32.2-13.2 30.3z"/>
		<path id="&lt;Path&gt;" class="s76" d="m1260.6 1326.9c0 0-1.1 70.4-37.5 83.2-36.3 12.9-73.7 9-78.2 13.4-4.4 4.5-25.9 233.5-25.9 233.5h-32.1c0 0-14.4-229.4-15.4-280.9-0.1-5.9 0-9.5 0.3-10.1 2.8-6.1 8.4-10.3 8.4-10.3h38.8l-4.6-15.6c63.9-2.5 146.2-13.2 146.2-13.2z"/>
		<path id="&lt;Path&gt;" class="s77" d="m1080.2 1355.7c0 0-5.6 4.2-8.4 10.3-0.3 0.6-0.4 4.2-0.3 10.1 0 0-69.5 16.7-73.4 21.7-4 5.1-45.3 245.2-45.3 245.2l-26.3-2.2c0 0 1.7-272.6 4-276.5 2.2-3.9 21.4-16.2 21.4-16.2l2.4 7.6z"/>
		<path id="&lt;Path&gt;" class="s0" d="m952.8 1643l0.4 30-76.7 32.2c0 0-2.3-1.1 0-13.4 2.2-12.3 48.4-41.7 48.4-41.7l1.6-9.3z"/>
		<path id="&lt;Path&gt;" class="s0" d="m1119 1657l-0.9 10.1 8.4 35.2v8.9h-46.3v-6l6.7-37v-11.2z"/>
	</g>
</svg>